<svg width="31" height="31" viewBox="0 0 31 31" fill="none" xmlns="http://www.w3.org/2000/svg">
<mask id="mask0_86609_5096" style="mask-type:alpha" maskUnits="userSpaceOnUse" x="0" y="0" width="31" height="31">
<rect x="0.998413" y="0.98291" width="30" height="30" fill="#D9D9D9"/>
</mask>
<g mask="url(#mask0_86609_5096)">
<path d="M5.62494 28.1853C4.95421 28.1853 4.38002 27.9465 3.90238 27.4688C3.42473 26.9912 3.18591 26.417 3.18591 25.7462V8.67308C3.18591 8.00235 3.42473 7.42816 3.90238 6.95052C4.38002 6.47287 4.95421 6.23405 5.62494 6.23405H16.5091L14.0701 8.67308H5.62494V25.7462H22.6981V17.2706L25.1371 14.8316V25.7462C25.1371 26.417 24.8983 26.9912 24.4207 27.4688C23.943 27.9465 23.3688 28.1853 22.6981 28.1853H5.62494ZM19.253 6.93527L20.9908 8.64259L12.942 16.6914V18.4292H14.6493L22.7286 10.3499L24.4664 12.0572L16.3871 20.1365C16.1636 20.3601 15.9044 20.5379 15.6097 20.67C15.315 20.8021 15.005 20.8682 14.6798 20.8682H11.7225C11.377 20.8682 11.0873 20.7513 10.8536 20.5176C10.6199 20.2839 10.503 19.9942 10.503 19.6487V16.6914C10.503 16.3662 10.564 16.0562 10.6859 15.7615C10.8079 15.4668 10.9806 15.2076 11.2042 14.9841L19.253 6.93527ZM24.4664 12.0572L19.253 6.93527L22.3018 3.88649C22.7896 3.39869 23.3739 3.15479 24.0548 3.15479C24.7357 3.15479 25.3099 3.39869 25.7774 3.88649L27.4847 5.6243C27.9522 6.09178 28.1859 6.66088 28.1859 7.33161C28.1859 8.00235 27.9522 8.57145 27.4847 9.03893L24.4664 12.0572Z" fill="white"/>
</g>
</svg>
